<?xml version="1.0" encoding="UTF-8" standalone="no"?>
<svg
   id="tnb-google-search-icon"
   width="80px"
   height="80px"
   viewBox="0 0 16 16"
   fill="none"
   version="1.1"
   sodipodi:docname="search.svg"
   inkscape:version="1.4.2 (1:1.4.2+202505120737+ebf0e940d0)"
   xmlns:inkscape="http://www.inkscape.org/namespaces/inkscape"
   xmlns:sodipodi="http://sodipodi.sourceforge.net/DTD/sodipodi-0.dtd"
   xmlns="http://www.w3.org/2000/svg"
   xmlns:svg="http://www.w3.org/2000/svg">
  <defs
     id="defs1" />
  <sodipodi:namedview
     id="namedview1"
     pagecolor="#ffffff"
     bordercolor="#000000"
     borderopacity="0.25"
     inkscape:showpageshadow="2"
     inkscape:pageopacity="0.0"
     inkscape:pagecheckerboard="0"
     inkscape:deskcolor="#d1d1d1"
     inkscape:zoom="9.6625"
     inkscape:cx="40"
     inkscape:cy="40"
     inkscape:window-width="1920"
     inkscape:window-height="990"
     inkscape:window-x="0"
     inkscape:window-y="0"
     inkscape:window-maximized="1"
     inkscape:current-layer="tnb-google-search-icon" />
  <path
     d="m 10.75455,9.7253369 c 0.582101,-0.7924783 0.92593,-1.7708199 0.92593,-2.8294692 0,-2.642464 -2.1421784,-4.7846054 -4.7846203,-4.7846054 -2.642464,0 -4.7846045,2.1421414 -4.7846045,4.7846054 0,2.6425005 2.1421405,4.7846093 4.7846045,4.7846093 1.0589288,0 2.0375203,-0.343976 2.8300722,-0.926375 l -5.883e-4,5.16e-4 c 0.021715,0.02946 0.045858,0.05757 0.072509,0.08421 l 2.8343274,2.834326 c 0.287443,0.287445 0.753538,0.287445 1.04098,0 0.287447,-0.287445 0.287447,-0.753538 0,-1.040982 L 10.838836,9.7978476 c -0.02665,-0.02665 -0.05485,-0.050794 -0.08429,-0.072509 z m 0.189838,-2.8294692 c 0,2.2359342 -1.8125943,4.0485163 -4.0485285,4.0485163 -2.2359344,0 -4.0485122,-1.8125821 -4.0485122,-4.0485163 0,-2.2359345 1.8125778,-4.0485124 4.0485122,-4.0485124 2.2359343,0 4.0485285,1.8125779 4.0485285,4.0485124 z"
     fill="#000000"
     id="path1"
     style="stroke-width:0.736093" />
</svg>
